{"title":"The.Lords.Of.Salem.2012.DVDRip.XVID.AC3.HQ.Hive-CM8","uid":8409577,"size":1583256279,"categoryP":"video","categoryS":"movies","magnet":"?xt=urn:btih:5cf699126d8d6c04135735d17b10ea5e4c330953&amp;dn=The.Lords.Of.Salem.2012.DVDRip.XVID.AC3.HQ.Hive-CM8&amp;tr=udp%3A%2F%2Ftracker.openbittorrent.com%3A80&amp;tr=udp%3A%2F%2Fopen.demonii.com%3A1337&amp;tr=udp%3A%2F%2Ftracker.coppersurfer.tk%3A6969&amp;tr=udp%3A%2F%2Fexodus.desync.com%3A6969","seeders":3,"leechers":0,"uploader":"xxxlavalxxx","files":-1,"time":1366882777,"description":"\n\n The.Lords.Of.Salem.2012.DVDRip.XVID.AC3.HQ.Hive-CM8\n\n\n Source: DVD-R PAL\n\n Video.: 720x304 @bitrate 1700 2pass\n Audio.: English AC3 5.1 @448\n Sample: Yes, included\n\n\n IMDb..: http://www.imdb.com/title/tt1731697/\n\n\n ENCODE\n dvd quality was ok, had a bit of noise in it.\n added brightness, sharpness, rgb and denoise.\n got very nice \n enjoy\n\n\n General\n Complete name                  : The.Lords.Of.Salem.2012.DVDRip.XVID.AC3.HQ.Hive-CM8.avi\n Format                         : AVI\n Format/Info                    : Audio Video Interleave\n File size                      : 1.46 GiB\n Duration                       : 1h 36mn\n Overall bit rate               : 2 157 Kbps\n Writing application            : Nandub v1.0rc2\n Writing library                : Nandub build 1853/release\n\n Video\n ID                             : 0\n Format                         : MPEG-4 Visual\n Format profile                 : Advanced Simple@L5\n Format settings, BVOP          : 2\n Format settings, QPel          : Yes\n Format settings, GMC           : No warppoints\n Format settings, Matrix        : Default (H.263)\n Muxing mode                    : Packed bitstream\n Codec ID                       : XVID\n Codec ID/Hint                  : XviD\n Duration                       : 1h 36mn\n Bit rate                       : 1 699 Kbps\n Width                          : 720 pixels\n Height                         : 304 pixels\n Display aspect ratio           : 2.35:1\n Frame rate                     : 25.000 fps\n Color space                    : YUV\n Chroma subsampling             : 4:2:0\n Bit depth                      : 8 bits\n Scan type                      : Progressive\n Compression mode               : Lossy\n Bits/(Pixel*Frame)             : 0.311\n Stream size                    : 1.15 GiB (79%)\n Writing library                : XviD 1.2.1 (UTC 2008-12-04)\n\n Audio\n ID                             : 1\n Format                         : AC-3\n Format/Info                    : Audio Coding 3\n Mode extension                 : CM (complete main)\n Format settings, Endianness    : Big\n Codec ID                       : 2000\n Duration                       : 1h 36mn\n Bit rate mode                  : Constant\n Bit rate                       : 448 Kbps\n Channel(s)                     : 6 channels\n Channel positions              : Front: L C R, Side: L R, LFE\n Sampling rate                  : 48.0 KHz\n Bit depth                      : 16 bits\n Compression mode               : Lossy\n Stream size                    : 311 MiB (21%)\n Alignment                      : Split accross interleaves\n Interleave, duration           : 40 ms (1.00 video frame)\n Interleave, preload duration   : 500 ms\n\n\n PLOT\n Heidi, a radio DJ, is sent a box containing a record - a &quot;gift from the Lords.&quot;\n The sounds within the grooves trigger flashbacks of her town's violent past.\n Is Heidi going mad, or are the Lords back to take revenge on Salem, Mass.?\n\n\n CAST\n Sheri Moon Zombie     ...    Heidi Hawthorne\n Bruce Davison         ...    Francis Matthias\n Jeff Daniel Phillips  ...    Herman 'Whitey' Salvador\n\n\n\n   &lt;a href=&quot;\thttp://www.shotpix.com/images/21629696750430489328.png&quot; rel=&quot;nofollow&quot; target=&quot;_NEW&quot;&gt;\thttp://www.shotpix.com/images/21629696750430489328.png&lt;/a&gt;\n    &lt;a href=&quot;\thttp://www.shotpix.com/images/43014113803210724343.png&quot; rel=&quot;nofollow&quot; target=&quot;_NEW&quot;&gt;\thttp://www.shotpix.com/images/43014113803210724343.png&lt;/a&gt;\n    &lt;a href=&quot;\thttp://www.shotpix.com/images/67647331486137526619.png&quot; rel=&quot;nofollow&quot; target=&quot;_NEW&quot;&gt;\thttp://www.shotpix.com/images/67647331486137526619.png&lt;/a&gt;\n    &lt;a href=&quot;\thttp://www.shotpix.com/images/07701428334841888953.png&quot; rel=&quot;nofollow&quot; target=&quot;_NEW&quot;&gt;\thttp://www.shotpix.com/images/07701428334841888953.png&lt;/a&gt;\n    &lt;a href=&quot;\thttp://www.shotpix.com/images/20809277683552623556.png&quot; rel=&quot;nofollow&quot; target=&quot;_NEW&quot;&gt;\thttp://www.shotpix.com/images/20809277683552623556.png&lt;/a&gt;","torrent":{"xt":"urn:btih:5cf699126d8d6c04135735d17b10ea5e4c330953","amp;dn":"The.Lords.Of.Salem.2012.DVDRip.XVID.AC3.HQ.Hive-CM8","amp;tr":["udp%3A%2F%2Ftracker.openbittorrent.com%3A80","udp%3A%2F%2Fopen.demonii.com%3A1337","udp%3A%2F%2Ftracker.coppersurfer.tk%3A6969","udp%3A%2F%2Fexodus.desync.com%3A6969"],"infoHash":"5cf699126d8d6c04135735d17b10ea5e4c330953","infoHashBuffer":{"type":"Buffer","data":[92,246,153,18,109,141,108,4,19,87,53,209,123,16,234,94,76,51,9,83]},"announce":[],"urlList":[]}}